<mxfile host="app.diagrams.net" modified="2024-05-31T09:02:27.507Z" agent="Mozilla/5.0 (Windows NT 10.0; Win64; x64) AppleWebKit/537.36 (KHTML, like Gecko) Chrome/123.0.0.0 Safari/537.36 Edg/123.0.0.0" etag="q3p_O4w3tHlYQsXpJa43" version="24.4.10" type="github">
  <diagram name="Page-1" id="1s-kNIn9ZSsuVjY9I_-7">
    <mxGraphModel dx="2213" dy="1962" grid="1" gridSize="10" guides="1" tooltips="1" connect="1" arrows="1" fold="1" page="1" pageScale="1" pageWidth="827" pageHeight="1169" math="0" shadow="0">
      <root>
        <mxCell id="0" />
        <mxCell id="1" parent="0" />
        <mxCell id="3I1Q3FmlnKjEjvLCsBJX-1" value="&lt;u&gt;Diagramme de gestion des ordres de mission&lt;/u&gt;" style="swimlane;fontStyle=1;align=center;horizontal=1;startSize=30;collapsible=0;html=1;whiteSpace=wrap;" vertex="1" parent="1">
          <mxGeometry x="-680" y="-117" width="1080" height="557" as="geometry" />
        </mxCell>
        <mxCell id="3I1Q3FmlnKjEjvLCsBJX-2" value="&lt;i&gt;&lt;font style=&quot;font-size: 8.5px;&quot;&gt;&lt;b style=&quot;&quot;&gt;u:Use Case model&lt;/b&gt;&lt;/font&gt;&lt;/i&gt;" style="shape=umlFrame;whiteSpace=wrap;html=1;pointerEvents=0;recursiveResize=0;container=1;collapsible=0;width=80;align=left;" vertex="1" parent="3I1Q3FmlnKjEjvLCsBJX-1">
          <mxGeometry width="950" height="500" relative="1" as="geometry">
            <mxPoint x="53" y="31" as="offset" />
          </mxGeometry>
        </mxCell>
        <mxCell id="3I1Q3FmlnKjEjvLCsBJX-3" value="&lt;div&gt;&lt;br&gt;&lt;/div&gt;Authentifier" style="ellipse;whiteSpace=wrap;html=1;verticalAlign=top;strokeColor=#3399FF;gradientColor=#CCE5FF;" vertex="1" parent="3I1Q3FmlnKjEjvLCsBJX-2">
          <mxGeometry x="428" y="214" width="145" height="51" as="geometry" />
        </mxCell>
        <mxCell id="3I1Q3FmlnKjEjvLCsBJX-4" value="&lt;div&gt;Supprimer le bon&lt;/div&gt;&lt;div&gt;de caisse&lt;/div&gt;" style="ellipse;whiteSpace=wrap;html=1;verticalAlign=top;strokeColor=#3399FF;gradientColor=#CCE5FF;" vertex="1" parent="3I1Q3FmlnKjEjvLCsBJX-2">
          <mxGeometry x="145" y="279" width="145" height="51" as="geometry" />
        </mxCell>
        <mxCell id="3I1Q3FmlnKjEjvLCsBJX-5" value="&lt;i&gt;&amp;lt;&amp;lt;Includes&amp;gt;&amp;gt;&lt;/i&gt;" style="endArrow=open;endSize=12;dashed=1;html=1;rounded=0;edgeStyle=orthogonalEdgeStyle;exitX=1;exitY=0.5;exitDx=0;exitDy=0;" edge="1" parent="3I1Q3FmlnKjEjvLCsBJX-2" source="3I1Q3FmlnKjEjvLCsBJX-4" target="3I1Q3FmlnKjEjvLCsBJX-3">
          <mxGeometry width="160" relative="1" as="geometry">
            <mxPoint x="403" y="114.5" as="sourcePoint" />
            <mxPoint x="699" y="399" as="targetPoint" />
            <Array as="points">
              <mxPoint x="438" y="305" />
            </Array>
          </mxGeometry>
        </mxCell>
        <mxCell id="3I1Q3FmlnKjEjvLCsBJX-6" value="Modifier l&#39;ordre&amp;nbsp;&lt;div&gt;de mission&lt;/div&gt;" style="ellipse;whiteSpace=wrap;html=1;verticalAlign=top;strokeColor=#3399FF;gradientColor=#CCE5FF;" vertex="1" parent="3I1Q3FmlnKjEjvLCsBJX-2">
          <mxGeometry x="138" y="220" width="145" height="51" as="geometry" />
        </mxCell>
        <mxCell id="3I1Q3FmlnKjEjvLCsBJX-9" value="&lt;i&gt;&amp;lt;&amp;lt;Includes&amp;gt;&amp;gt;&lt;/i&gt;" style="endArrow=open;endSize=12;dashed=1;html=1;rounded=0;edgeStyle=orthogonalEdgeStyle;exitX=1;exitY=1;exitDx=0;exitDy=0;entryX=0.076;entryY=0.235;entryDx=0;entryDy=0;entryPerimeter=0;" edge="1" parent="3I1Q3FmlnKjEjvLCsBJX-2" source="3I1Q3FmlnKjEjvLCsBJX-25" target="3I1Q3FmlnKjEjvLCsBJX-3">
          <mxGeometry width="160" relative="1" as="geometry">
            <mxPoint x="280.9699999999998" y="150.99700000000007" as="sourcePoint" />
            <mxPoint x="488" y="184" as="targetPoint" />
            <Array as="points">
              <mxPoint x="438" y="142" />
              <mxPoint x="438" y="217" />
              <mxPoint x="439" y="217" />
            </Array>
          </mxGeometry>
        </mxCell>
        <mxCell id="3I1Q3FmlnKjEjvLCsBJX-16" value="&lt;div&gt;Filtrer&amp;nbsp;&lt;/div&gt;" style="ellipse;whiteSpace=wrap;html=1;verticalAlign=top;strokeColor=#3399FF;gradientColor=#CCE5FF;" vertex="1" parent="3I1Q3FmlnKjEjvLCsBJX-2">
          <mxGeometry x="498" y="29" width="92" height="31" as="geometry" />
        </mxCell>
        <mxCell id="3I1Q3FmlnKjEjvLCsBJX-17" value="&lt;i&gt;&amp;lt;&amp;lt;Includes&amp;gt;&amp;gt;&lt;/i&gt;" style="endArrow=open;endSize=12;dashed=1;html=1;rounded=0;edgeStyle=orthogonalEdgeStyle;exitX=1;exitY=0.5;exitDx=0;exitDy=0;entryX=0;entryY=0.5;entryDx=0;entryDy=0;" edge="1" parent="3I1Q3FmlnKjEjvLCsBJX-2" source="3I1Q3FmlnKjEjvLCsBJX-26" target="3I1Q3FmlnKjEjvLCsBJX-16">
          <mxGeometry width="160" relative="1" as="geometry">
            <mxPoint x="268" y="333" as="sourcePoint" />
            <mxPoint x="423" y="333" as="targetPoint" />
          </mxGeometry>
        </mxCell>
        <mxCell id="3I1Q3FmlnKjEjvLCsBJX-28" value="" style="endArrow=block;endSize=16;endFill=0;html=1;rounded=0;exitX=0.367;exitY=0.028;exitDx=0;exitDy=0;exitPerimeter=0;entryX=0.621;entryY=0.954;entryDx=0;entryDy=0;entryPerimeter=0;" edge="1" parent="3I1Q3FmlnKjEjvLCsBJX-2" source="3I1Q3FmlnKjEjvLCsBJX-31" target="3I1Q3FmlnKjEjvLCsBJX-25">
          <mxGeometry width="160" relative="1" as="geometry">
            <mxPoint x="392" y="498.664" as="sourcePoint" />
            <mxPoint x="481" y="356" as="targetPoint" />
          </mxGeometry>
        </mxCell>
        <mxCell id="3I1Q3FmlnKjEjvLCsBJX-29" value="" style="endArrow=block;endSize=16;endFill=0;html=1;rounded=0;entryX=0.294;entryY=0.954;entryDx=0;entryDy=0;entryPerimeter=0;exitX=0.5;exitY=0;exitDx=0;exitDy=0;strokeColor=#000000;" edge="1" parent="3I1Q3FmlnKjEjvLCsBJX-2" source="3I1Q3FmlnKjEjvLCsBJX-30" target="3I1Q3FmlnKjEjvLCsBJX-25">
          <mxGeometry width="160" relative="1" as="geometry">
            <mxPoint x="276" y="499" as="sourcePoint" />
            <mxPoint x="379" y="469" as="targetPoint" />
          </mxGeometry>
        </mxCell>
        <mxCell id="3I1Q3FmlnKjEjvLCsBJX-30" value="&lt;div&gt;OM&amp;nbsp;&lt;span style=&quot;background-color: initial;&quot;&gt;du dép Tech/Ing&lt;/span&gt;&lt;br&gt;&lt;/div&gt;" style="ellipse;whiteSpace=wrap;html=1;verticalAlign=top;strokeColor=#3399FF;gradientColor=#CCE5FF;" vertex="1" parent="3I1Q3FmlnKjEjvLCsBJX-2">
          <mxGeometry x="98" y="180" width="100" height="40" as="geometry" />
        </mxCell>
        <mxCell id="3I1Q3FmlnKjEjvLCsBJX-31" value="&lt;div&gt;OM&amp;nbsp;&lt;span style=&quot;background-color: initial;&quot;&gt;du dép&amp;nbsp;&lt;/span&gt;&lt;/div&gt;&lt;div&gt;&lt;span style=&quot;background-color: initial;&quot;&gt;administratif&lt;/span&gt;&lt;/div&gt;" style="ellipse;whiteSpace=wrap;html=1;verticalAlign=top;strokeColor=#3399FF;gradientColor=#CCE5FF;" vertex="1" parent="3I1Q3FmlnKjEjvLCsBJX-2">
          <mxGeometry x="208" y="179" width="100" height="41" as="geometry" />
        </mxCell>
        <mxCell id="3I1Q3FmlnKjEjvLCsBJX-32" value="Notifier&lt;div&gt;le Collaborateur&lt;/div&gt;" style="ellipse;whiteSpace=wrap;html=1;verticalAlign=top;strokeColor=#3399FF;gradientColor=#CCE5FF;" vertex="1" parent="3I1Q3FmlnKjEjvLCsBJX-2">
          <mxGeometry x="358" y="70" width="145" height="51" as="geometry" />
        </mxCell>
        <mxCell id="3I1Q3FmlnKjEjvLCsBJX-33" value="&amp;lt;&amp;lt;Includes&amp;gt;&amp;gt;" style="endArrow=open;endSize=12;dashed=1;html=1;rounded=0;exitX=1;exitY=0.5;exitDx=0;exitDy=0;entryX=0;entryY=0.5;entryDx=0;entryDy=0;" edge="1" parent="3I1Q3FmlnKjEjvLCsBJX-2" source="3I1Q3FmlnKjEjvLCsBJX-25" target="3I1Q3FmlnKjEjvLCsBJX-32">
          <mxGeometry width="160" relative="1" as="geometry">
            <mxPoint x="504" y="448" as="sourcePoint" />
            <mxPoint x="640" y="483" as="targetPoint" />
          </mxGeometry>
        </mxCell>
        <mxCell id="3I1Q3FmlnKjEjvLCsBJX-25" value="Créer l&#39;ordre de&lt;div&gt;&amp;nbsp;mission des missionnés&lt;/div&gt;" style="ellipse;whiteSpace=wrap;html=1;verticalAlign=top;strokeColor=#3399FF;gradientColor=#CCE5FF;" vertex="1" parent="3I1Q3FmlnKjEjvLCsBJX-2">
          <mxGeometry x="138" y="99" width="145" height="51" as="geometry" />
        </mxCell>
        <mxCell id="3I1Q3FmlnKjEjvLCsBJX-26" value="Affecter au Bon&amp;nbsp;&lt;div&gt;de Caisse correspondant&lt;/div&gt;" style="ellipse;whiteSpace=wrap;html=1;verticalAlign=top;strokeColor=#3399FF;gradientColor=#CCE5FF;gradientDirection=south;" vertex="1" parent="3I1Q3FmlnKjEjvLCsBJX-2">
          <mxGeometry x="250" y="19" width="145" height="51" as="geometry" />
        </mxCell>
        <mxCell id="3I1Q3FmlnKjEjvLCsBJX-36" value="&amp;lt;&amp;lt;Includes&amp;gt;&amp;gt;" style="endArrow=open;endSize=12;dashed=1;html=1;rounded=0;exitX=0.566;exitY=0.02;exitDx=0;exitDy=0;entryX=0;entryY=1;entryDx=0;entryDy=0;exitPerimeter=0;" edge="1" parent="3I1Q3FmlnKjEjvLCsBJX-2" source="3I1Q3FmlnKjEjvLCsBJX-25" target="3I1Q3FmlnKjEjvLCsBJX-26">
          <mxGeometry width="160" relative="1" as="geometry">
            <mxPoint x="333" y="153" as="sourcePoint" />
            <mxPoint x="440" y="137" as="targetPoint" />
          </mxGeometry>
        </mxCell>
        <mxCell id="3I1Q3FmlnKjEjvLCsBJX-39" value="Ajouter des infos&amp;nbsp;&lt;div&gt;sur&amp;nbsp;&lt;span style=&quot;background-color: initial;&quot;&gt;son ordre&amp;nbsp;&lt;/span&gt;&lt;span style=&quot;background-color: initial;&quot;&gt;de Mission&lt;/span&gt;&lt;/div&gt;" style="ellipse;whiteSpace=wrap;html=1;verticalAlign=top;strokeColor=#3399FF;gradientColor=#CCE5FF;" vertex="1" parent="3I1Q3FmlnKjEjvLCsBJX-2">
          <mxGeometry x="714" y="70" width="145" height="51" as="geometry" />
        </mxCell>
        <mxCell id="3I1Q3FmlnKjEjvLCsBJX-41" value="Consulter ses&lt;div&gt;&amp;nbsp;Ordres&amp;nbsp;&lt;span style=&quot;background-color: initial;&quot;&gt;de mission&lt;/span&gt;&lt;/div&gt;" style="ellipse;whiteSpace=wrap;html=1;verticalAlign=top;strokeColor=#3399FF;gradientColor=#CCE5FF;" vertex="1" parent="3I1Q3FmlnKjEjvLCsBJX-2">
          <mxGeometry x="698" y="9" width="145" height="51" as="geometry" />
        </mxCell>
        <mxCell id="3I1Q3FmlnKjEjvLCsBJX-43" value="Modifier ses ordres&lt;div&gt;&amp;nbsp;de mission&lt;/div&gt;" style="ellipse;whiteSpace=wrap;html=1;verticalAlign=top;strokeColor=#3399FF;gradientColor=#CCE5FF;" vertex="1" parent="3I1Q3FmlnKjEjvLCsBJX-2">
          <mxGeometry x="733.5" y="135" width="145" height="51" as="geometry" />
        </mxCell>
        <mxCell id="3I1Q3FmlnKjEjvLCsBJX-51" value="&lt;div&gt;Créer les OMs du&amp;nbsp;&lt;/div&gt;&lt;div&gt;dép technique et ingénierie&lt;div&gt;&lt;br&gt;&lt;/div&gt;&lt;/div&gt;" style="ellipse;whiteSpace=wrap;html=1;verticalAlign=top;strokeColor=#3399FF;gradientColor=#CCE5FF;" vertex="1" parent="3I1Q3FmlnKjEjvLCsBJX-2">
          <mxGeometry x="748" y="273" width="156" height="51" as="geometry" />
        </mxCell>
        <mxCell id="3I1Q3FmlnKjEjvLCsBJX-50" value="&lt;div&gt;Consulter / modifier&lt;/div&gt;&lt;div&gt;&amp;nbsp;les OMs des T/I&lt;/div&gt;" style="ellipse;whiteSpace=wrap;html=1;verticalAlign=top;strokeColor=#3399FF;gradientColor=#CCE5FF;" vertex="1" parent="3I1Q3FmlnKjEjvLCsBJX-2">
          <mxGeometry x="714" y="324" width="145" height="51" as="geometry" />
        </mxCell>
        <mxCell id="3I1Q3FmlnKjEjvLCsBJX-48" value="&lt;div&gt;Valider les OMs&lt;/div&gt;&lt;div&gt;&amp;nbsp;des T/I&lt;br&gt;&lt;/div&gt;" style="ellipse;whiteSpace=wrap;html=1;verticalAlign=top;strokeColor=#3399FF;gradientColor=#CCE5FF;" vertex="1" parent="3I1Q3FmlnKjEjvLCsBJX-2">
          <mxGeometry x="733.5" y="388" width="145" height="51" as="geometry" />
        </mxCell>
        <mxCell id="3I1Q3FmlnKjEjvLCsBJX-49" value="&amp;lt;&amp;lt;Includes&amp;gt;&amp;gt;" style="endArrow=open;endSize=12;dashed=1;html=1;rounded=0;exitX=0.038;exitY=0.314;exitDx=0;exitDy=0;entryX=1;entryY=0.5;entryDx=0;entryDy=0;exitPerimeter=0;" edge="1" parent="3I1Q3FmlnKjEjvLCsBJX-2" source="3I1Q3FmlnKjEjvLCsBJX-48" target="3I1Q3FmlnKjEjvLCsBJX-54">
          <mxGeometry width="160" relative="1" as="geometry">
            <mxPoint x="963" y="456" as="sourcePoint" />
            <mxPoint x="790" y="660" as="targetPoint" />
          </mxGeometry>
        </mxCell>
        <mxCell id="3I1Q3FmlnKjEjvLCsBJX-54" value="Validation finale" style="ellipse;whiteSpace=wrap;html=1;verticalAlign=top;strokeColor=#3399FF;gradientColor=#CCE5FF;" vertex="1" parent="3I1Q3FmlnKjEjvLCsBJX-2">
          <mxGeometry x="418" y="384" width="100" height="36" as="geometry" />
        </mxCell>
        <mxCell id="3I1Q3FmlnKjEjvLCsBJX-46" value="Imprimer l&#39;OM" style="ellipse;whiteSpace=wrap;html=1;verticalAlign=top;strokeColor=#3399FF;gradientColor=#CCE5FF;" vertex="1" parent="3I1Q3FmlnKjEjvLCsBJX-2">
          <mxGeometry x="418" y="424" width="100" height="36" as="geometry" />
        </mxCell>
        <mxCell id="3I1Q3FmlnKjEjvLCsBJX-47" value="&amp;lt;&amp;lt;Extends&amp;gt;&amp;gt;" style="endArrow=open;endSize=12;dashed=1;html=1;rounded=0;exitX=0;exitY=0.5;exitDx=0;exitDy=0;entryX=0.91;entryY=0.824;entryDx=0;entryDy=0;entryPerimeter=0;" edge="1" parent="3I1Q3FmlnKjEjvLCsBJX-2" source="3I1Q3FmlnKjEjvLCsBJX-54" target="3I1Q3FmlnKjEjvLCsBJX-55">
          <mxGeometry width="160" relative="1" as="geometry">
            <mxPoint x="608" y="661" as="sourcePoint" />
            <mxPoint x="453" y="661" as="targetPoint" />
          </mxGeometry>
        </mxCell>
        <mxCell id="3I1Q3FmlnKjEjvLCsBJX-57" value="" style="endArrow=open;endSize=12;dashed=1;html=1;rounded=0;exitX=0;exitY=0.403;exitDx=0;exitDy=0;exitPerimeter=0;entryX=0.821;entryY=0.98;entryDx=0;entryDy=0;entryPerimeter=0;" edge="1" parent="3I1Q3FmlnKjEjvLCsBJX-2" source="3I1Q3FmlnKjEjvLCsBJX-46" target="3I1Q3FmlnKjEjvLCsBJX-55">
          <mxGeometry width="160" relative="1" as="geometry">
            <mxPoint x="-70" y="312" as="sourcePoint" />
            <mxPoint x="-250" y="310" as="targetPoint" />
          </mxGeometry>
        </mxCell>
        <mxCell id="3I1Q3FmlnKjEjvLCsBJX-59" value="&amp;lt;&amp;lt;Extends&amp;gt;&amp;gt;" style="edgeLabel;html=1;align=center;verticalAlign=middle;resizable=0;points=[];" vertex="1" connectable="0" parent="3I1Q3FmlnKjEjvLCsBJX-57">
          <mxGeometry x="-0.1393" y="4" relative="1" as="geometry">
            <mxPoint y="-4" as="offset" />
          </mxGeometry>
        </mxCell>
        <mxCell id="3I1Q3FmlnKjEjvLCsBJX-55" value="Consulter ses&lt;div&gt;&amp;nbsp;Ordres&amp;nbsp;&lt;span style=&quot;background-color: initial;&quot;&gt;de mission&lt;/span&gt;&lt;/div&gt;" style="ellipse;whiteSpace=wrap;html=1;verticalAlign=top;strokeColor=#3399FF;gradientColor=#CCE5FF;" vertex="1" parent="3I1Q3FmlnKjEjvLCsBJX-2">
          <mxGeometry x="128" y="344" width="145" height="51" as="geometry" />
        </mxCell>
        <mxCell id="3I1Q3FmlnKjEjvLCsBJX-61" value="&lt;i&gt;&amp;lt;&amp;lt;Includes&amp;gt;&amp;gt;&lt;/i&gt;" style="endArrow=open;endSize=12;dashed=1;html=1;rounded=0;edgeStyle=orthogonalEdgeStyle;exitX=1;exitY=0.5;exitDx=0;exitDy=0;" edge="1" parent="3I1Q3FmlnKjEjvLCsBJX-2" target="3I1Q3FmlnKjEjvLCsBJX-3">
          <mxGeometry width="160" relative="1" as="geometry">
            <mxPoint x="283" y="244" as="sourcePoint" />
            <mxPoint x="386" y="244" as="targetPoint" />
            <Array as="points">
              <mxPoint x="283" y="245" />
            </Array>
          </mxGeometry>
        </mxCell>
        <mxCell id="3I1Q3FmlnKjEjvLCsBJX-65" value="&amp;lt;&amp;lt;Includes&amp;gt;&amp;gt;" style="endArrow=open;endSize=12;dashed=1;html=1;rounded=0;exitX=0;exitY=0;exitDx=0;exitDy=0;entryX=0.924;entryY=0.863;entryDx=0;entryDy=0;entryPerimeter=0;" edge="1" parent="3I1Q3FmlnKjEjvLCsBJX-2" source="3I1Q3FmlnKjEjvLCsBJX-48" target="3I1Q3FmlnKjEjvLCsBJX-3">
          <mxGeometry width="160" relative="1" as="geometry">
            <mxPoint x="801" y="411" as="sourcePoint" />
            <mxPoint x="580" y="407" as="targetPoint" />
          </mxGeometry>
        </mxCell>
        <mxCell id="3I1Q3FmlnKjEjvLCsBJX-66" value="&amp;lt;&amp;lt;Includes&amp;gt;&amp;gt;" style="endArrow=open;endSize=12;dashed=1;html=1;rounded=0;exitX=0.028;exitY=0.373;exitDx=0;exitDy=0;entryX=0.986;entryY=0.667;entryDx=0;entryDy=0;exitPerimeter=0;entryPerimeter=0;" edge="1" parent="3I1Q3FmlnKjEjvLCsBJX-2" source="3I1Q3FmlnKjEjvLCsBJX-50" target="3I1Q3FmlnKjEjvLCsBJX-3">
          <mxGeometry width="160" relative="1" as="geometry">
            <mxPoint x="816" y="403" as="sourcePoint" />
            <mxPoint x="635" y="286" as="targetPoint" />
          </mxGeometry>
        </mxCell>
        <mxCell id="3I1Q3FmlnKjEjvLCsBJX-67" value="&amp;lt;&amp;lt;Includes&amp;gt;&amp;gt;" style="endArrow=open;endSize=12;dashed=1;html=1;rounded=0;exitX=0;exitY=0.5;exitDx=0;exitDy=0;entryX=1;entryY=0.5;entryDx=0;entryDy=0;" edge="1" parent="3I1Q3FmlnKjEjvLCsBJX-2" source="3I1Q3FmlnKjEjvLCsBJX-51" target="3I1Q3FmlnKjEjvLCsBJX-3">
          <mxGeometry width="160" relative="1" as="geometry">
            <mxPoint x="814" y="344" as="sourcePoint" />
            <mxPoint x="633" y="294" as="targetPoint" />
          </mxGeometry>
        </mxCell>
        <mxCell id="3I1Q3FmlnKjEjvLCsBJX-68" value="&amp;lt;&amp;lt;Includes&amp;gt;&amp;gt;" style="endArrow=open;endSize=12;dashed=1;html=1;rounded=0;exitX=0;exitY=0.5;exitDx=0;exitDy=0;entryX=1;entryY=0;entryDx=0;entryDy=0;" edge="1" parent="3I1Q3FmlnKjEjvLCsBJX-2" source="3I1Q3FmlnKjEjvLCsBJX-43" target="3I1Q3FmlnKjEjvLCsBJX-3">
          <mxGeometry width="160" relative="1" as="geometry">
            <mxPoint x="812" y="273" as="sourcePoint" />
            <mxPoint x="635" y="286" as="targetPoint" />
          </mxGeometry>
        </mxCell>
        <mxCell id="3I1Q3FmlnKjEjvLCsBJX-69" value="&amp;lt;&amp;lt;Includes&amp;gt;&amp;gt;" style="endArrow=open;endSize=12;dashed=1;html=1;rounded=0;exitX=0;exitY=0.5;exitDx=0;exitDy=0;entryX=0.814;entryY=0.118;entryDx=0;entryDy=0;entryPerimeter=0;" edge="1" parent="3I1Q3FmlnKjEjvLCsBJX-2" source="3I1Q3FmlnKjEjvLCsBJX-39" target="3I1Q3FmlnKjEjvLCsBJX-3">
          <mxGeometry width="160" relative="1" as="geometry">
            <mxPoint x="760" y="211" as="sourcePoint" />
            <mxPoint x="610" y="260" as="targetPoint" />
          </mxGeometry>
        </mxCell>
        <mxCell id="3I1Q3FmlnKjEjvLCsBJX-70" value="&amp;lt;&amp;lt;Includes&amp;gt;&amp;gt;" style="endArrow=open;endSize=12;dashed=1;html=1;rounded=0;exitX=0;exitY=0.5;exitDx=0;exitDy=0;entryX=0.731;entryY=0.078;entryDx=0;entryDy=0;entryPerimeter=0;" edge="1" parent="3I1Q3FmlnKjEjvLCsBJX-2" source="3I1Q3FmlnKjEjvLCsBJX-41" target="3I1Q3FmlnKjEjvLCsBJX-3">
          <mxGeometry width="160" relative="1" as="geometry">
            <mxPoint x="760" y="151" as="sourcePoint" />
            <mxPoint x="608" y="266" as="targetPoint" />
          </mxGeometry>
        </mxCell>
        <mxCell id="3I1Q3FmlnKjEjvLCsBJX-71" value="&lt;i&gt;&amp;lt;&amp;lt;Includes&amp;gt;&amp;gt;&lt;/i&gt;" style="endArrow=open;endSize=12;dashed=1;html=1;rounded=0;edgeStyle=orthogonalEdgeStyle;entryX=0.345;entryY=1.02;entryDx=0;entryDy=0;entryPerimeter=0;" edge="1" parent="3I1Q3FmlnKjEjvLCsBJX-2" source="3I1Q3FmlnKjEjvLCsBJX-55" target="3I1Q3FmlnKjEjvLCsBJX-3">
          <mxGeometry width="160" relative="1" as="geometry">
            <mxPoint x="278" y="364" as="sourcePoint" />
            <mxPoint x="478" y="274" as="targetPoint" />
            <Array as="points">
              <mxPoint x="478" y="364" />
            </Array>
          </mxGeometry>
        </mxCell>
        <object label="&lt;b&gt;Administrateur&lt;/b&gt;&lt;div&gt;&lt;b&gt;&lt;br&gt;&lt;/b&gt;&lt;/div&gt;" Admin="" id="3I1Q3FmlnKjEjvLCsBJX-18">
          <mxCell style="shape=umlActor;verticalLabelPosition=bottom;verticalAlign=top;html=1;outlineConnect=0;direction=east;rotation=0;fillColor=#0000FF;strokeColor=#0000FF;" vertex="1" parent="3I1Q3FmlnKjEjvLCsBJX-1">
            <mxGeometry x="21" y="229" width="30" height="60" as="geometry" />
          </mxCell>
        </object>
        <mxCell id="3I1Q3FmlnKjEjvLCsBJX-19" value="" style="endArrow=none;html=1;rounded=0;entryX=0;entryY=0.5;entryDx=0;entryDy=0;exitX=1;exitY=0.3333333333333333;exitDx=0;exitDy=0;exitPerimeter=0;" edge="1" parent="3I1Q3FmlnKjEjvLCsBJX-1" source="3I1Q3FmlnKjEjvLCsBJX-18" target="3I1Q3FmlnKjEjvLCsBJX-4">
          <mxGeometry width="50" height="50" relative="1" as="geometry">
            <mxPoint x="288" y="447" as="sourcePoint" />
            <mxPoint x="372" y="324" as="targetPoint" />
          </mxGeometry>
        </mxCell>
        <mxCell id="3I1Q3FmlnKjEjvLCsBJX-20" value="" style="endArrow=none;html=1;rounded=0;entryX=0;entryY=0.5;entryDx=0;entryDy=0;exitX=1;exitY=0.3333333333333333;exitDx=0;exitDy=0;exitPerimeter=0;" edge="1" parent="3I1Q3FmlnKjEjvLCsBJX-1" source="3I1Q3FmlnKjEjvLCsBJX-18" target="3I1Q3FmlnKjEjvLCsBJX-6">
          <mxGeometry width="50" height="50" relative="1" as="geometry">
            <mxPoint x="349" y="451" as="sourcePoint" />
            <mxPoint x="429" y="536" as="targetPoint" />
          </mxGeometry>
        </mxCell>
        <mxCell id="3I1Q3FmlnKjEjvLCsBJX-22" value="" style="endArrow=none;html=1;rounded=0;entryX=0;entryY=0.5;entryDx=0;entryDy=0;exitX=1;exitY=0.3333333333333333;exitDx=0;exitDy=0;exitPerimeter=0;" edge="1" parent="3I1Q3FmlnKjEjvLCsBJX-1" source="3I1Q3FmlnKjEjvLCsBJX-18" target="3I1Q3FmlnKjEjvLCsBJX-25">
          <mxGeometry width="50" height="50" relative="1" as="geometry">
            <mxPoint x="61" y="259" as="sourcePoint" />
            <mxPoint x="82.02999999999997" y="108.0139999999999" as="targetPoint" />
          </mxGeometry>
        </mxCell>
        <object label="&lt;div style=&quot;text-align: right;&quot;&gt;&lt;b&gt;Collaborateur&lt;/b&gt;&lt;/div&gt;&lt;div style=&quot;text-align: right;&quot;&gt;&lt;b&gt;&lt;br&gt;&lt;/b&gt;&lt;/div&gt;" Admin="" id="3I1Q3FmlnKjEjvLCsBJX-23">
          <mxCell style="shape=umlActor;verticalLabelPosition=bottom;verticalAlign=top;html=1;outlineConnect=0;direction=east;rotation=0;fillColor=#0000FF;strokeColor=#0000FF;" vertex="1" parent="3I1Q3FmlnKjEjvLCsBJX-1">
            <mxGeometry x="1005" y="90" width="30" height="60" as="geometry" />
          </mxCell>
        </object>
        <object label="&lt;div&gt;&lt;b&gt;Superviseur&lt;/b&gt;&lt;/div&gt;" Admin="" id="3I1Q3FmlnKjEjvLCsBJX-37">
          <mxCell style="shape=umlActor;verticalLabelPosition=bottom;verticalAlign=top;html=1;outlineConnect=0;direction=east;rotation=0;fillColor=#0000FF;strokeColor=#0000FF;" vertex="1" parent="3I1Q3FmlnKjEjvLCsBJX-1">
            <mxGeometry x="1005" y="340" width="30" height="60" as="geometry" />
          </mxCell>
        </object>
        <mxCell id="3I1Q3FmlnKjEjvLCsBJX-38" value="" style="endArrow=none;html=1;rounded=0;entryX=0;entryY=0.3333333333333333;entryDx=0;entryDy=0;entryPerimeter=0;exitX=1;exitY=0.5;exitDx=0;exitDy=0;" edge="1" parent="3I1Q3FmlnKjEjvLCsBJX-1" source="3I1Q3FmlnKjEjvLCsBJX-51" target="3I1Q3FmlnKjEjvLCsBJX-37">
          <mxGeometry width="50" height="50" relative="1" as="geometry">
            <mxPoint x="800" y="372" as="sourcePoint" />
            <mxPoint x="1020" y="372" as="targetPoint" />
          </mxGeometry>
        </mxCell>
        <mxCell id="3I1Q3FmlnKjEjvLCsBJX-44" value="" style="endArrow=none;html=1;rounded=0;exitX=0.97;exitY=0.222;exitDx=0;exitDy=0;exitPerimeter=0;entryX=0;entryY=0.3333333333333333;entryDx=0;entryDy=0;entryPerimeter=0;" edge="1" parent="3I1Q3FmlnKjEjvLCsBJX-1" source="3I1Q3FmlnKjEjvLCsBJX-43" target="3I1Q3FmlnKjEjvLCsBJX-23">
          <mxGeometry width="50" height="50" relative="1" as="geometry">
            <mxPoint x="646" y="300" as="sourcePoint" />
            <mxPoint x="947" y="99" as="targetPoint" />
          </mxGeometry>
        </mxCell>
        <mxCell id="3I1Q3FmlnKjEjvLCsBJX-42" value="" style="endArrow=none;html=1;rounded=0;exitX=0.998;exitY=0.346;exitDx=0;exitDy=0;exitPerimeter=0;entryX=0;entryY=0.3333333333333333;entryDx=0;entryDy=0;entryPerimeter=0;" edge="1" parent="3I1Q3FmlnKjEjvLCsBJX-1" source="3I1Q3FmlnKjEjvLCsBJX-41" target="3I1Q3FmlnKjEjvLCsBJX-23">
          <mxGeometry width="50" height="50" relative="1" as="geometry">
            <mxPoint x="644" y="214" as="sourcePoint" />
            <mxPoint x="947" y="99" as="targetPoint" />
          </mxGeometry>
        </mxCell>
        <mxCell id="3I1Q3FmlnKjEjvLCsBJX-40" value="" style="endArrow=none;html=1;rounded=0;exitX=0.986;exitY=0.392;exitDx=0;exitDy=0;exitPerimeter=0;entryX=0;entryY=0.3333333333333333;entryDx=0;entryDy=0;entryPerimeter=0;" edge="1" parent="3I1Q3FmlnKjEjvLCsBJX-1" source="3I1Q3FmlnKjEjvLCsBJX-39" target="3I1Q3FmlnKjEjvLCsBJX-23">
          <mxGeometry width="50" height="50" relative="1" as="geometry">
            <mxPoint x="661" y="242" as="sourcePoint" />
            <mxPoint x="947" y="99" as="targetPoint" />
          </mxGeometry>
        </mxCell>
        <mxCell id="3I1Q3FmlnKjEjvLCsBJX-52" value="" style="endArrow=none;html=1;rounded=0;exitX=1;exitY=0.5;exitDx=0;exitDy=0;entryX=0;entryY=0.3333333333333333;entryDx=0;entryDy=0;entryPerimeter=0;" edge="1" parent="3I1Q3FmlnKjEjvLCsBJX-1" source="3I1Q3FmlnKjEjvLCsBJX-50" target="3I1Q3FmlnKjEjvLCsBJX-37">
          <mxGeometry width="50" height="50" relative="1" as="geometry">
            <mxPoint x="818" y="344.5" as="sourcePoint" />
            <mxPoint x="930" y="324.5" as="targetPoint" />
          </mxGeometry>
        </mxCell>
        <mxCell id="3I1Q3FmlnKjEjvLCsBJX-53" value="" style="endArrow=none;html=1;rounded=0;exitX=0.962;exitY=0.275;exitDx=0;exitDy=0;exitPerimeter=0;entryX=0;entryY=0.3333333333333333;entryDx=0;entryDy=0;entryPerimeter=0;" edge="1" parent="3I1Q3FmlnKjEjvLCsBJX-1" source="3I1Q3FmlnKjEjvLCsBJX-48" target="3I1Q3FmlnKjEjvLCsBJX-37">
          <mxGeometry width="50" height="50" relative="1" as="geometry">
            <mxPoint x="901" y="191" as="sourcePoint" />
            <mxPoint x="980" y="380" as="targetPoint" />
          </mxGeometry>
        </mxCell>
        <mxCell id="3I1Q3FmlnKjEjvLCsBJX-56" value="" style="endArrow=none;html=1;rounded=0;entryX=0;entryY=0.5;entryDx=0;entryDy=0;exitX=1;exitY=0.3333333333333333;exitDx=0;exitDy=0;exitPerimeter=0;" edge="1" parent="3I1Q3FmlnKjEjvLCsBJX-1" source="3I1Q3FmlnKjEjvLCsBJX-18" target="3I1Q3FmlnKjEjvLCsBJX-55">
          <mxGeometry width="50" height="50" relative="1" as="geometry">
            <mxPoint x="61" y="259" as="sourcePoint" />
            <mxPoint x="200" y="376" as="targetPoint" />
          </mxGeometry>
        </mxCell>
      </root>
    </mxGraphModel>
  </diagram>
</mxfile>
